<svg id="_x35_0" enable-background="new 0 0 512 512" height="512" viewBox="0 0 512 512" width="512" xmlns="http://www.w3.org/2000/svg"><g><g><circle cx="256" cy="256" fill="#fb8406" r="256"/></g><g><g><path d="m462.93 406.75c-46.56 63.8-121.91 105.25-206.93 105.25s-160.37-41.45-206.93-105.25z" fill="#d48d77"/><g fill="#eea47d"><path d="m380.58 406.75v72.95c-6.668 3.708-13.507 7.145-20.48 10.25v-83.2z"/><path d="m462.92 406.75c-4.978 6.838-10.303 13.422-15.94 19.73v-19.73z"/><path d="m200.532 406.75v42.24c0 5.66-4.59 10.25-10.25 10.25-5.65 0-10.24-4.59-10.24-10.25v-42.24z"/><path d="m305.71 437.94v69.23c-6.74 1.33-13.57 2.39-20.49 3.17v-72.4c0-5.65 4.59-10.24 10.24-10.24 5.656.004 10.249 4.576 10.25 10.24z"/><path d="m427.21 434.63v11.68c-6.53 5.9-13.37 11.45-20.49 16.63v-28.31c.528-13.576 19.964-13.571 20.49 0z"/><path d="m248.63 406.75v105.14c-6.849-.186-13.674-.653-20.48-1.39v-103.75z"/><path d="m163.68 460.62v34.23c-6.98-2.7-13.81-5.7-20.48-8.98v-25.25c.518-13.58 19.966-13.573 20.48 0z"/><path d="m95.83 407.27v48.44c-7.145-5.736-13.984-11.856-20.48-18.32v-30.12c0-.17 0-.35.01-.52h20.46c.01.18.01.35.01.52z"/></g></g></g><g><path d="m282.896 330.024h-53.792c-9.524 0-17.245 7.721-17.245 17.245v71.037h88.281v-71.037c.001-9.525-7.72-17.245-17.244-17.245z" fill="#334353"/><path d="m357.139 418.305h-202.278c-10.329 0-18.702 8.373-18.702 18.703 0 10.329 8.373 18.703 18.702 18.703h202.279c10.329 0 18.703-8.373 18.703-18.703-.001-10.33-8.374-18.703-18.704-18.703z" fill="#334353"/><path d="m318.361 418.305h-124.722c-6.369 0-11.532 5.163-11.532 11.532 0 6.369 5.163 11.532 11.532 11.532h124.722c6.369 0 11.532-5.163 11.532-11.532-.001-6.369-5.163-11.532-11.532-11.532z" fill="#3e4e60"/><path d="m446.321 126.531v211.03c0 5.754-1.71 11.132-4.665 15.629-3.707 5.754-9.421 10.043-16.173 11.923-2.462.713-5.093 1.089-7.75 1.089h-323.465c-2.709 0-5.287-.376-7.75-1.089-6.752-1.879-12.467-6.169-16.173-11.923-2.955-4.497-4.665-9.875-4.665-15.629v-211.03c0-2.657.376-5.287 1.075-7.75 2.67-9.551 10.173-17.093 19.763-19.763 2.462-.7 5.093-1.076 7.75-1.076h323.465c2.709 0 5.287.376 7.75 1.076 9.551 2.67 17.093 10.173 19.763 19.763.699 2.462 1.075 5.093 1.075 7.75z" fill="#3f5d77"/><path d="m107.37 126.531v211.03c0 5.754-1.711 11.132-4.678 15.629-3.706 5.754-9.421 10.043-16.173 11.923-6.752-1.879-12.467-6.169-16.173-11.923-2.955-4.497-4.665-9.875-4.665-15.629v-211.03c0-13.089 8.786-24.13 20.838-27.513 12.051 3.383 20.851 14.424 20.851 27.513z" fill="#3e4e60"/><path d="m446.321 126.531v211.03c0 5.754-1.71 11.132-4.665 15.629-3.707 5.754-9.421 10.043-16.173 11.923-6.752-1.879-12.467-6.169-16.173-11.923-2.968-4.497-4.678-9.875-4.678-15.629v-211.03c0-13.128 8.838-24.169 20.852-27.513 11.999 3.344 20.837 14.385 20.837 27.513z" fill="#3f6c8e"/><path d="m446.321 307.21v30.351c0 5.754-1.71 11.132-4.665 15.629-3.707 5.754-9.421 10.043-16.173 11.923-2.462.713-5.093 1.089-7.75 1.089h-323.465c-2.709 0-5.287-.376-7.75-1.089-6.752-1.879-12.467-6.169-16.173-11.923-2.955-4.497-4.665-9.875-4.665-15.629v-30.351z" fill="#3e4e60"/><path d="m107.37 307.21v30.351c0 5.754-1.711 11.132-4.678 15.629-3.706 5.754-9.421 10.043-16.173 11.923-6.752-1.879-12.467-6.169-16.173-11.923-2.955-4.497-4.665-9.875-4.665-15.629v-30.351z" fill="#334353"/><path d="m446.321 307.21v30.351c0 5.754-1.71 11.132-4.665 15.629-3.707 5.754-9.421 10.043-16.173 11.923-6.752-1.879-12.467-6.169-16.173-11.923-2.968-4.497-4.678-9.875-4.678-15.629v-30.351z" fill="#3f5d77"/><path d="m278.767 336.705h-45.534c-5.866 0-10.622 4.755-10.622 10.622 0 5.866 4.755 10.622 10.622 10.622h45.534c5.866 0 10.622-4.755 10.622-10.622 0-5.866-4.756-10.622-10.622-10.622z" fill="#334353"/><path d="m340.881 118.788h-135.473c-5.756 0-10.423-4.666-10.423-10.423 0-5.756 4.666-10.423 10.423-10.423h135.473c5.756 0 10.423 4.666 10.423 10.423 0 5.756-4.666 10.423-10.423 10.423z" fill="#3f6c8e"/><g><path d="m407.423 328.995h-302.846c-9.97 0-18.053-8.083-18.053-18.053v-174.102c0-9.97 8.083-18.053 18.053-18.053h302.845c9.97 0 18.053 8.083 18.053 18.053v174.102c0 9.97-8.082 18.053-18.052 18.053z" fill="#cde6f6"/><g><g><path d="m283.999 191.09v95.615c0 8.947-7.253 16.2-16.2 16.2h-125.626c-8.947 0-16.2-7.253-16.2-16.2v-125.634c0-8.943 7.25-16.193 16.193-16.193h95.628z" fill="#ea792e"/><g fill="#fff"><path d="m218.454 258.294c.069 4.372-5.684 7.066-9.242 4.723-.949-.575-1.693-1.473-2.234-2.692l-6.094-13.608h-35.749l-6.094 13.608c-2.108 5.78-11.538 3.906-11.578-2.03 0-.879.203-1.76.609-2.641l28.03-60.223c2.341-5.515 11.267-5.521 13.609 0 0 0 28.132 60.223 28.132 60.223.408.879.611 1.76.611 2.64zm-48.85-21.733h26.812l-13.406-30.163z"/><path d="m227.999 201.877c-2.693-2.297-2.727-7.53 0-9.8 2.501-2.431 8.361-2.448 10.918 0 2.789 2.258 2.75 7.49.051 9.8-2.486 2.507-8.486 2.507-10.969 0zm.965 60.63c-1.185-1.049-1.777-2.554-1.777-4.518v-39.202c-.508-7.995 13.155-7.941 12.695 0v39.201c.391 5.788-7.189 7.835-10.918 4.519z"/></g><path d="m283.999 191.09h-30.012c-8.946 0-16.193-7.248-16.193-16.193v-30.019z" fill="#dd5e26"/></g></g><g id="Pencil_11_"><g><path d="m310.844 182.422h23.485v89.528h-23.485z" fill="#f39e22"/><path d="m317.675 189.252v75.868c0 1.888-.764 3.59-2.002 4.828s-2.94 2.002-4.828 2.002v-89.528c3.769 0 6.83 3.055 6.83 6.83z" fill="#c68132"/><path d="m334.33 182.422v89.528c-3.775 0-6.836-3.06-6.836-6.83v-75.868c0-3.775 3.061-6.83 6.836-6.83z" fill="#f9c744"/></g><g><path d="m340.541 277.389c0 3-2.433 5.439-5.434 5.439h-25.04c-1.5 0-2.859-.611-3.841-1.593-.496-.496-.9-1.091-1.173-1.746-.273-.649-.42-1.358-.42-2.1 0-3.006 2.433-5.439 5.434-5.439h25.04c1.5 0 2.859.611 3.841 1.593.987.982 1.593 2.345 1.593 3.846z" fill="#ebd9ea"/><path d="m340.541 277.389h-15.81c-1.5 0-2.859-.606-3.846-1.593-.982-.982-1.593-2.34-1.593-3.846h15.815c1.5 0 2.859.611 3.841 1.593.987.982 1.593 2.345 1.593 3.846z" fill="#fff"/><path d="m333.907 282.828h-23.84c-1.5 0-2.859-.611-3.841-1.593-.496-.496-.9-1.091-1.173-1.746h23.84c1.5 0 2.859.611 3.841 1.593.497.496.895 1.086 1.173 1.746z" fill="#c1b7d3"/></g><g><path d="m334.327 282.828v8.047c0 3.568-1.587 6.759-4.097 8.909-.218.196-.442.376-.676.546-1.953 1.435-4.359 2.286-6.967 2.286-2.739 0-5.259-.938-7.256-2.509-.311-.245-.616-.507-.9-.791-.049-.038-.098-.087-.147-.136-2.128-2.122-3.442-5.057-3.442-8.303v-8.047h23.485z" fill="#ee6781"/><path d="m334.327 282.828v8.047c0 3.568-1.587 6.759-4.097 8.909-.224-.191-.442-.393-.655-.606-2.122-2.122-3.437-5.057-3.437-8.303v-8.047z" fill="#f0a6b3"/><path d="m318.016 282.828v8.047c0 3.317-1.369 6.312-3.584 8.439-.049-.038-.098-.087-.147-.136-2.128-2.122-3.442-5.057-3.442-8.303v-8.047z" fill="#d65171"/></g><path d="m334.327 182.422h-23.485l9.819-24.5h3.852l7.954 19.857z" fill="#f5b890"/><path d="m332.467 177.779h-11.887c-2.018 0-3.393-2.04-2.646-3.912l6.388-15.946h.191z" fill="#fbd9a3"/><g><path d="m325.08 147.371v11.582c0 1.375-1.118 2.488-2.493 2.488-.687 0-1.309-.278-1.762-.726-.453-.453-.731-1.075-.731-1.762v-11.582c0-1.244.911-2.269 2.095-2.46.131-.022.262-.033.398-.033 1.375 0 2.493 1.113 2.493 2.493z" fill="#2e3140"/><path d="m325.08 147.371v7.087c-.131.022-.262.033-.398.033-.687 0-1.315-.278-1.762-.731-.453-.453-.731-1.075-.731-1.762v-7.087c.131-.022.262-.033.398-.033 1.375 0 2.493 1.113 2.493 2.493z" fill="#334353"/></g></g><g id="Ruler_8_"><g><path d="m355.044 144.878h22.531c1.968 0 3.563 1.595 3.563 3.563v150.901c0 1.968-1.595 3.563-3.563 3.563h-22.531c-1.968 0-3.563-1.595-3.563-3.563v-150.901c0-1.968 1.595-3.563 3.563-3.563z" fill="#e9465e"/><path d="m358.9 144.878h-3.856c-1.968 0-3.563 1.595-3.563 3.563v150.901c0 1.968 1.595 3.563 3.563 3.563h3.856z" fill="#ee6781"/></g><g fill="#f0a6b3"><path d="m351.481 153.875h11.432c.743 0 1.345-.602 1.345-1.345 0-.743-.602-1.345-1.345-1.345h-11.432z"/><path d="m351.481 189.556h11.432c.743 0 1.345-.602 1.345-1.345 0-.743-.602-1.345-1.345-1.345h-11.432z"/><path d="m351.481 161.011h6.986c.743 0 1.345-.602 1.345-1.345 0-.743-.602-1.345-1.345-1.345h-6.986z"/><path d="m351.481 168.148h6.986c.743 0 1.345-.602 1.345-1.345 0-.743-.602-1.345-1.345-1.345h-6.986z"/><path d="m351.481 175.284h6.986c.743 0 1.345-.602 1.345-1.345 0-.743-.602-1.345-1.345-1.345h-6.986z"/><path d="m351.481 182.42h6.986c.743 0 1.345-.602 1.345-1.345 0-.743-.602-1.345-1.345-1.345h-6.986z"/><path d="m351.481 225.236h11.432c.743 0 1.345-.602 1.345-1.345 0-.743-.602-1.345-1.345-1.345h-11.432z"/><path d="m351.481 196.692h6.986c.743 0 1.345-.602 1.345-1.345 0-.743-.602-1.345-1.345-1.345h-6.986z"/><path d="m351.481 203.828h6.986c.743 0 1.345-.602 1.345-1.345 0-.743-.602-1.345-1.345-1.345h-6.986z"/><path d="m351.481 210.964h6.986c.743 0 1.345-.602 1.345-1.345 0-.743-.602-1.345-1.345-1.345h-6.986z"/><path d="m351.481 218.1h6.986c.743 0 1.345-.602 1.345-1.345 0-.743-.602-1.345-1.345-1.345h-6.986z"/><path d="m351.481 260.917h11.432c.743 0 1.345-.602 1.345-1.345 0-.743-.602-1.345-1.345-1.345h-11.432z"/><path d="m351.481 232.372h6.986c.743 0 1.345-.602 1.345-1.345 0-.743-.602-1.345-1.345-1.345h-6.986z"/><path d="m351.481 239.508h6.986c.743 0 1.345-.602 1.345-1.345 0-.743-.602-1.345-1.345-1.345h-6.986z"/><path d="m351.481 246.645h6.986c.743 0 1.345-.602 1.345-1.345 0-.743-.602-1.345-1.345-1.345h-6.986z"/><path d="m351.481 253.781h6.986c.743 0 1.345-.602 1.345-1.345 0-.743-.602-1.345-1.345-1.345h-6.986z"/><path d="m351.481 296.597h11.432c.743 0 1.345-.602 1.345-1.345 0-.743-.602-1.345-1.345-1.345h-11.432z"/><path d="m351.481 268.053h6.986c.743 0 1.345-.602 1.345-1.345 0-.743-.602-1.345-1.345-1.345h-6.986z"/><path d="m351.481 275.189h6.986c.743 0 1.345-.602 1.345-1.345 0-.743-.602-1.345-1.345-1.345h-6.986z"/><path d="m351.481 282.325h6.986c.743 0 1.345-.602 1.345-1.345 0-.743-.602-1.345-1.345-1.345h-6.986z"/><path d="m351.481 289.461h6.986c.743 0 1.345-.602 1.345-1.345 0-.743-.602-1.345-1.345-1.345h-6.986z"/></g></g></g></g></g></svg>