<svg height="512" viewBox="0 0 256 256" width="512" xmlns="http://www.w3.org/2000/svg"><rect fill="#cecece" height="151.106" rx="13.665" width="219.26" x="18.37" y="50.711"/><path d="m28.37 188.153v-123.777a13.681 13.681 0 0 1 13.665-13.665h-10a13.681 13.681 0 0 0 -13.665 13.665v123.777a13.681 13.681 0 0 0 13.665 13.665h10a13.681 13.681 0 0 1 -13.665-13.665z" fill="#afafaf"/><path d="m227.63 188.153v-123.777a13.681 13.681 0 0 0 -13.665-13.665h10a13.681 13.681 0 0 1 13.665 13.665v123.777a13.681 13.681 0 0 1 -13.665 13.665h-10a13.681 13.681 0 0 0 13.665-13.665z" fill="#e2e2e2"/><rect fill="#63bce7" height="122.288" rx="5.256" width="202.442" x="26.779" y="59.12"/><path d="m36.779 176.153v-111.777a5.271 5.271 0 0 1 5.256-5.256h-10a5.271 5.271 0 0 0 -5.256 5.256v111.777a5.271 5.271 0 0 0 5.256 5.256h10a5.271 5.271 0 0 1 -5.256-5.256z" fill="#6377e7"/><path d="m219.221 176.153v-111.777a5.271 5.271 0 0 0 -5.256-5.256h10a5.271 5.271 0 0 1 5.256 5.256v111.777a5.271 5.271 0 0 1 -5.256 5.256h-10a5.271 5.271 0 0 0 5.256-5.256z" fill="#63e2e7"/><path d="m89.809 223.975h76.383v9.197h-76.383z" fill="#9e9e9e"/><path d="m89.809 223.975h10v9.197h-10z" fill="#707070"/><path d="m100.67 201.817h54.659v22.158h-54.659z" fill="#cecece"/><path d="m100.67 201.817h10v22.158h-10z" fill="#afafaf"/><circle cx="128" cy="191.613" fill="#9e9e9e" r="4.5"/><rect fill="#cecece" height="132.343" rx="10.6" width="154.485" x="50.757" y="11.854"/><path d="m60.757 133.6v-111.146a10.6 10.6 0 0 1 10.6-10.6h-10a10.6 10.6 0 0 0 -10.6 10.6v111.146a10.6 10.6 0 0 0 10.6 10.6h10a10.6 10.6 0 0 1 -10.6-10.6z" fill="#afafaf"/><path d="m195.243 133.6v-111.146a10.6 10.6 0 0 0 -10.6-10.6h10a10.6 10.6 0 0 1 10.6 10.6v111.146a10.6 10.6 0 0 1 -10.6 10.6h-10a10.6 10.6 0 0 0 10.6-10.6z" fill="#e2e2e2"/><path d="m205.242 22.456a10.6 10.6 0 0 0 -10.6-10.6h-133.283a10.6 10.6 0 0 0 -10.6 10.6v18.449h154.483z" fill="#f8af23"/><path d="m71.359 11.854h-10a10.6 10.6 0 0 0 -10.6 10.6v18.451h10v-18.449a10.6 10.6 0 0 1 10.6-10.602z" fill="#f87023"/><path d="m184.641 11.854h10a10.6 10.6 0 0 1 10.6 10.6v18.451h-10v-18.449a10.6 10.6 0 0 0 -10.6-10.602z" fill="#f8d323"/><circle cx="69.682" cy="26.38" fill="#f46275" r="4.842"/><circle cx="88.332" cy="26.38" fill="#f46275" r="4.842"/><circle cx="106.981" cy="26.38" fill="#f46275" r="4.842"/><rect fill="#f46275" height="7.378" rx="3.689" width="68.643" x="122.517" y="23.008"/><rect fill="#f8af23" height="52.539" rx="26.269" width="118.068" x="68.966" y="117.928"/><g fill="#3f3679"><path d="m128 197.613a6 6 0 1 0 -6-6 6.007 6.007 0 0 0 6 6zm0-9a3 3 0 1 1 -3 3 3 3 0 0 1 3-3z"/><path d="m27.323 242.646h-18a1.5 1.5 0 0 0 0 3h18a1.5 1.5 0 1 0 0-3z"/><path d="m246.68 242.646h-18a1.5 1.5 0 0 0 0 3h18a1.5 1.5 0 0 0 0-3z"/><path d="m218.479 242.646h-180.958a1.5 1.5 0 0 0 0 3h180.958a1.5 1.5 0 0 0 0-3z"/><path d="m9.32 234.673h237.36a1.5 1.5 0 0 0 0-3h-78.989v-7.7a1.5 1.5 0 0 0 -1.5-1.5h-9.362v-19.156h67.137a15.182 15.182 0 0 0 15.164-15.165v-123.776a15.182 15.182 0 0 0 -15.164-15.165h-17.224v-26.757a12.113 12.113 0 0 0 -12.1-12.1h-133.285a12.113 12.113 0 0 0 -12.1 12.1v26.757h-17.223a15.182 15.182 0 0 0 -15.164 15.165v123.776a15.182 15.182 0 0 0 15.164 15.165h67.137v19.158h-9.362a1.5 1.5 0 0 0 -1.5 1.5v7.7h-78.989a1.5 1.5 0 0 0 0 3zm179.172-91.973a27.8 27.8 0 0 0 -27.728-26.27h-65.529a27.8 27.8 0 0 0 -27.727 26.27h-6.15a9.11 9.11 0 0 1 -9.1-9.1v-91.195h151.484v91.195a9.11 9.11 0 0 1 -9.1 9.1zm-2.958 1.5a24.8 24.8 0 0 1 -24.77 24.769h-65.529a24.769 24.769 0 1 1 0-49.539h65.529a24.8 24.8 0 0 1 24.77 24.77zm-124.177 1.5h6.15a27.8 27.8 0 0 0 27.728 26.269h65.529a27.8 27.8 0 0 0 27.728-26.269h6.15a12.114 12.114 0 0 0 12.1-12.1v-72.98h17.224a3.76 3.76 0 0 1 3.755 3.756v111.776a3.76 3.76 0 0 1 -3.755 3.756h-191.932a3.76 3.76 0 0 1 -3.755-3.756v-111.776a3.76 3.76 0 0 1 3.755-3.756h17.224v72.98a12.114 12.114 0 0 0 12.099 12.1zm133.284-132.346a9.112 9.112 0 0 1 9.1 9.1v16.951h-151.483v-16.949a9.112 9.112 0 0 1 9.1-9.1zm-174.771 174.798v-123.776a12.178 12.178 0 0 1 12.164-12.165h17.224v5.409h-17.224a6.763 6.763 0 0 0 -6.755 6.756v111.776a6.763 6.763 0 0 0 6.755 6.756h191.932a6.763 6.763 0 0 0 6.755-6.756v-111.776a6.763 6.763 0 0 0 -6.755-6.756h-17.224v-5.409h17.224a12.178 12.178 0 0 1 12.164 12.165v123.776a12.178 12.178 0 0 1 -12.164 12.165h-191.932a12.178 12.178 0 0 1 -12.164-12.165zm82.3 15.165h51.658v19.158h-51.657zm-10.861 22.159h73.383v6.2h-73.383z"/><path d="m69.682 32.722a6.342 6.342 0 1 0 -6.342-6.342 6.349 6.349 0 0 0 6.342 6.342zm0-9.684a3.342 3.342 0 1 1 -3.342 3.342 3.345 3.345 0 0 1 3.342-3.342z"/><path d="m88.332 32.722a6.342 6.342 0 1 0 -6.342-6.342 6.349 6.349 0 0 0 6.342 6.342zm0-9.684a3.342 3.342 0 1 1 -3.342 3.342 3.345 3.345 0 0 1 3.342-3.342z"/><path d="m106.981 32.722a6.342 6.342 0 1 0 -6.342-6.342 6.349 6.349 0 0 0 6.342 6.342zm0-9.684a3.342 3.342 0 1 1 -3.342 3.342 3.345 3.345 0 0 1 3.342-3.342z"/><path d="m126.206 31.886h61.265a5.189 5.189 0 1 0 0-10.378h-61.265a5.189 5.189 0 1 0 0 10.378zm0-7.378h61.265a2.189 2.189 0 1 1 0 4.378h-61.265a2.189 2.189 0 1 1 0-4.378z"/><path d="m101.5 133.805a.975.975 0 0 1 .975.975v13.084a6.7 6.7 0 0 1 -1.762 4.977 6.619 6.619 0 0 1 -4.875 1.747 7.389 7.389 0 0 1 -5.356-1.907 6.753 6.753 0 0 1 -1.932-4.409.986.986 0 0 1 .976-1.077h2.991a.981.981 0 0 1 .961.853q.295 2.029 2.128 2.029 1.89 0 1.89-2.213v-13.083a.975.975 0 0 1 .975-.975z"/><path d="m117.814 150.63h-6.314a.975.975 0 0 0 -.923.66l-.831 2.434a.975.975 0 0 1 -.923.66h-3.143a.975.975 0 0 1 -.915-1.313l6.82-18.484a.975.975 0 0 1 .915-.638h4.376a.975.975 0 0 1 .915.638l6.818 18.484a.975.975 0 0 1 -.915 1.313h-3.2a.975.975 0 0 1 -.923-.66l-.831-2.434a.975.975 0 0 0 -.926-.66zm-1.02-5.072-1.207-3.567a.975.975 0 0 0 -1.846 0l-1.221 3.567a.975.975 0 0 0 .923 1.291h2.428a.975.975 0 0 0 .923-1.291z"/><path d="m131.072 134.479 3.89 11.96a.975.975 0 0 0 1.855 0l3.89-11.96a.975.975 0 0 1 .927-.674h3.245a.975.975 0 0 1 .921 1.3l-6.48 18.629a.975.975 0 0 1 -.921.655h-5.047a.975.975 0 0 1 -.921-.656l-6.457-18.633a.975.975 0 0 1 .921-1.295h3.249a.975.975 0 0 1 .928.674z"/><path d="m160.224 150.63h-6.318a.975.975 0 0 0 -.923.66l-.831 2.434a.975.975 0 0 1 -.923.66h-3.143a.975.975 0 0 1 -.915-1.313l6.82-18.484a.975.975 0 0 1 .915-.638h4.376a.975.975 0 0 1 .915.638l6.818 18.484a.975.975 0 0 1 -.915 1.313h-3.2a.975.975 0 0 1 -.923-.66l-.831-2.434a.975.975 0 0 0 -.922-.66zm-1.02-5.072-1.204-3.567a.975.975 0 0 0 -1.846 0l-1.221 3.567a.975.975 0 0 0 .923 1.291h2.428a.975.975 0 0 0 .916-1.291z"/><path d="m66.667 54.667h7.857v7.857h-7.857z"/><path d="m80.474 54.667h69.359v7.857h-69.359z"/><path d="m155.641 54.667h12.517v7.857h-12.517z"/><path d="m66.667 70.646h7.857v7.857h-7.857z"/><path d="m80.474 70.646h55.413v7.857h-55.413z"/><path d="m141.808 70.646h26.35v7.857h-26.35z"/><path d="m66.667 86.625h7.857v7.857h-7.857z"/><path d="m80.474 86.625h27.707v7.857h-27.707z"/><path d="m119.404 86.625h48.754v7.857h-48.754z"/><path d="m66.667 102.605h7.857v7.857h-7.857z"/><path d="m80.474 102.605h16.201v7.857h-16.201z"/><path d="m102.474 102.605h65.683v7.857h-65.683z"/></g></svg>